<?xml version="1.0" encoding="utf-8"?>
<!-- Generator: Adobe Illustrator 15.0.2, SVG Export Plug-In . SVG Version: 6.00 Build 0)  -->
<!DOCTYPE svg PUBLIC "-//W3C//DTD SVG 1.1//EN" "http://www.w3.org/Graphics/SVG/1.1/DTD/svg11.dtd">
<svg version="1.1" id="Capa_1" xmlns="http://www.w3.org/2000/svg" xmlns:xlink="http://www.w3.org/1999/xlink" x="0px" y="0px"
	 width="50px" height="50px" viewBox="0 0 50 50" enable-background="new 0 0 50 50" xml:space="preserve">
<rect y="0" fill="#F4DB05" width="50" height="50"/>
<g>
	<g>
		<path fill="#BEA701" d="M24.8,9.796c-8.286,0-15.004,6.717-15.004,15.004c0,8.285,6.718,15.004,15.004,15.004
			c8.287,0,15.004-6.719,15.004-15.004C39.805,16.514,33.087,9.796,24.8,9.796z M24.8,37.93c-7.239,0-13.128-5.89-13.128-13.129
			s5.89-13.129,13.128-13.129c7.24,0,13.129,5.89,13.129,13.129S32.04,37.93,24.8,37.93z M24.887,29.489h1.323
			c0.491,0,0.9-0.38,0.936-0.871l0.938-13.128c0.019-0.259-0.071-0.515-0.249-0.705s-0.426-0.299-0.687-0.299h-4.688
			c-0.261,0-0.509,0.109-0.687,0.299c-0.177,0.19-0.267,0.446-0.249,0.705l0.938,13.128c0.035,0.491,0.443,0.871,0.935,0.871h1.355
			c-1.778,0.036-3.214,1.492-3.214,3.278c0,1.811,1.473,3.283,3.282,3.283s3.282-1.473,3.282-3.283
			C28.102,30.981,26.665,29.525,24.887,29.489z M24.27,27.613l-0.804-11.252h2.674l-0.804,11.252H24.27z M24.819,34.176
			c-0.775,0-1.407-0.633-1.407-1.408s0.631-1.405,1.407-1.405c0.776,0,1.407,0.63,1.407,1.405S25.595,34.176,24.819,34.176z"/>
	</g>
</g>
</svg>
