<?xml version="1.0" encoding="utf-8"?>
<!-- Generator: Adobe Illustrator 16.0.3, SVG Export Plug-In . SVG Version: 6.00 Build 0)  -->
<!DOCTYPE svg PUBLIC "-//W3C//DTD SVG 1.1//EN" "http://www.w3.org/Graphics/SVG/1.1/DTD/svg11.dtd" [
	<!ENTITY ns_extend "http://ns.adobe.com/Extensibility/1.0/">
	<!ENTITY ns_ai "http://ns.adobe.com/AdobeIllustrator/10.0/">
	<!ENTITY ns_graphs "http://ns.adobe.com/Graphs/1.0/">
	<!ENTITY ns_vars "http://ns.adobe.com/Variables/1.0/">
	<!ENTITY ns_imrep "http://ns.adobe.com/ImageReplacement/1.0/">
	<!ENTITY ns_sfw "http://ns.adobe.com/SaveForWeb/1.0/">
	<!ENTITY ns_custom "http://ns.adobe.com/GenericCustomNamespace/1.0/">
	<!ENTITY ns_adobe_xpath "http://ns.adobe.com/XPath/1.0/">
]>
<svg version="1.1" id="Capa_3" xmlns:x="&ns_extend;" xmlns:i="&ns_ai;" xmlns:graph="&ns_graphs;"
	 xmlns="http://www.w3.org/2000/svg" xmlns:xlink="http://www.w3.org/1999/xlink" x="0px" y="0px" width="427.703px"
	 height="129.72px" viewBox="-153.549 -22.5 427.703 129.72" enable-background="new -153.549 -22.5 427.703 129.72"
	 xml:space="preserve">
<metadata>
	<sfw  xmlns="&ns_sfw;">
		<slices></slices>
		<sliceSourceBounds  height="129.849" width="427.406" x="-252.503" y="-44.349" bottomLeftOrigin="true"></sliceSourceBounds>
	</sfw>
</metadata>
<g id="twitter" opacity="0.1">
	<path d="M239.644,17.408c-2.756,1.089-5.18,2.502-8.564,2.97c-7.852-8.995-25.733-1.837-22.156,12.166
		c-12.748-0.943-20.816-6.583-27.176-13.946c-3.534,5.965-0.281,15.454,3.547,17.506c-2.285,0.117-3.523-0.813-5.318-1.185
		c0.375,7.334,4.559,10.852,10.047,13.056c-1.715,0.369-3.608,0.369-5.318,0c1.734,5.282,5.715,8.298,11.811,9.198
		c-4.081,4.102-11.001,5.371-18.607,5.939c24.954,15.007,58.856-3.247,56.717-33.538c1.617-2.033,6.195-4.9,5.9-6.823
		c-1.869,0.9-4.336,1.18-6.492,1.781C236.341,22.588,238.4,20.411,239.644,17.408z"/>
	<path d="M253.221-5.099C240.718-16.483,225.739-22.5,209.901-22.5c-1.373,0-2.773,0.04-4.201,0.135
		c-9.322,0.602-18.564,2.995-26.025,6.745c-6.592,3.31-12.972,8.173-18.453,14.046c-11.916,12.771-18.023,30.118-16.752,47.587
		c1.322,18.202,7.534,31.322,20.766,43.878c11.683,11.093,27.588,17.457,43.634,17.457c1.306,0,2.618-0.041,3.948-0.129
		c21.802-1.4,35.933-12.092,43.953-20.816c12.394-13.48,18.211-29.466,17.289-47.485C273.197,22.22,265.608,6.174,253.221-5.099z
		 M209.901-14.259c17.366,0,30.128,8.291,37.773,15.248c10.788,9.826,17.408,23.804,18.15,38.352
		c0.813,15.731-4.277,29.689-15.117,41.481c-6.992,7.611-19.335,16.943-38.42,18.168c-1.148,0.074-2.281,0.104-3.419,0.104
		c-19.821,0-33.151-10.607-37.956-15.179c-11.766-11.18-17.047-22.334-18.224-38.508c-1.564-21.553,9.654-36.106,14.554-41.359
		c4.829-5.166,10.408-9.42,16.136-12.304c6.493-3.261,14.608-5.346,22.855-5.879C207.476-14.219,208.696-14.259,209.901-14.259z"/>
</g>
<g id="facebook" opacity="0.1">
	<path d="M68.08,27.137c0.716-4.078-1.119-7.957,0.291-10.554c1.771-3.25,7.578-0.6,12.017-1.468c0-4.591,0-9.185,0-13.776
		c-21.909-2.81-31.349,5.211-29.318,26.091c-2.539,0-5.083,0-7.621,0c0,4.592,0,9.185,0,13.783c2.633,0,5.275,0,7.915,0
		c0,13.383,0,26.778,0,40.161c5.57,0,11.143,0,16.714,0c0-13.383,0-26.778,0-40.161c3.706,0,7.422,0,11.139,0
		c0.512-4.572,0.902-9.265,1.462-13.783C76.583,27.235,71.698,27.817,68.08,27.137z"/>
	<path d="M126.898,38.918c-0.849-16.698-8.454-32.742-20.829-44.017C93.557-16.483,78.578-22.5,62.74-22.5
		c-1.374,0-2.773,0.04-4.201,0.135c-9.323,0.602-18.565,2.999-26.027,6.744c-6.591,3.32-12.971,8.181-18.452,14.052
		C2.145,11.21-3.962,28.552-2.692,46.021c1.323,18.196,7.535,31.316,20.766,43.875c11.689,11.088,27.59,17.452,43.634,17.452
		c1.305,0,2.618-0.041,3.949-0.129c21.801-1.4,35.936-12.092,43.953-20.816C122.003,72.922,127.819,56.938,126.898,38.918z
		 M62.74-14.255c17.373,0,30.128,8.295,37.773,15.25c10.786,9.828,17.408,23.806,18.151,38.35
		c0.813,15.73-4.278,29.685-15.118,41.48c-6.993,7.614-19.335,16.946-38.419,18.171c-1.149,0.071-2.282,0.109-3.419,0.109
		c-19.822,0-33.146-10.619-37.957-15.186C11.987,72.74,6.704,61.586,5.528,45.419C3.964,23.859,15.183,9.31,20.082,4.053
		C24.911-1.117,30.49-5.37,36.218-8.255c6.492-3.256,14.609-5.346,22.855-5.879C60.314-14.219,61.535-14.255,62.74-14.255z"/>
</g>
<g opacity="0.1">
	<path d="M-44.335-5.099C-56.838-16.483-71.817-22.5-87.655-22.5c-1.373,0-2.773,0.04-4.201,0.135
		c-9.322,0.602-18.564,2.995-26.025,6.745c-6.592,3.31-12.972,8.173-18.453,14.046c-11.916,12.771-18.023,30.118-16.752,47.587
		c1.322,18.202,7.534,31.322,20.766,43.878c11.683,11.093,27.588,17.457,43.634,17.457c1.306,0,2.618-0.041,3.948-0.129
		c21.802-1.4,35.933-12.092,43.953-20.816c12.394-13.48,18.211-29.466,17.289-47.485C-24.359,22.22-31.948,6.174-44.335-5.099z
		 M-87.655-14.259c17.366,0,30.128,8.291,37.773,15.248c10.788,9.826,17.408,23.804,18.15,38.352
		c0.813,15.731-4.277,29.689-15.117,41.481c-6.992,7.611-19.335,16.943-38.42,18.168c-1.148,0.074-2.281,0.104-3.419,0.104
		c-19.821,0-33.151-10.607-37.956-15.179c-11.766-11.18-17.047-22.334-18.224-38.508c-1.564-21.553,9.654-36.106,14.554-41.359
		c4.829-5.166,10.408-9.42,16.136-12.304c6.493-3.261,14.608-5.346,22.855-5.879C-90.081-14.219-88.86-14.259-87.655-14.259z"/>
	<path d="M-127.44,13.048h78.227c1.478,0,1.771,0.796,0.649,1.761l-37.732,32.706c-1.116,0.959-2.939,0.959-4.056,0l-37.742-32.706
		C-129.211,13.844-128.917,13.048-127.44,13.048z"/>
	<path d="M-132.911,66.093V18.519c0-1.467,0.912-1.892,2.033-0.928l26.585,22.964c1.122,0.964,1.122,2.547,0,3.511l-26.585,22.959
		C-131.999,67.984-132.911,67.57-132.911,66.093z"/>
	<path d="M-49.213,71.559h-78.227c-1.478,0-1.771-0.786-0.649-1.75l26.438-22.797c1.122-0.964,2.972-0.985,4.114-0.047l7.138,5.869
		c1.142,0.933,3.003,0.933,4.135-0.021l6.99-5.833c1.132-0.943,2.977-0.933,4.099,0.031l26.601,22.802
		C-47.453,70.777-47.736,71.559-49.213,71.559z"/>
	<path d="M-43.743,66.093c0,1.478-0.912,1.892-2.033,0.933l-26.591-22.959c-1.121-0.964-1.121-2.547,0-3.511l26.591-22.964
		c1.121-0.964,2.033-0.54,2.033,0.928V66.093z"/>
</g>
</svg>
