<?xml version="1.0" encoding="utf-8"?>
<!-- Generator: Adobe Illustrator 15.0.2, SVG Export Plug-In . SVG Version: 6.00 Build 0)  -->
<!DOCTYPE svg PUBLIC "-//W3C//DTD SVG 1.1//EN" "http://www.w3.org/Graphics/SVG/1.1/DTD/svg11.dtd">
<svg version="1.1" id="Capa_1" xmlns="http://www.w3.org/2000/svg" xmlns:xlink="http://www.w3.org/1999/xlink" x="0px" y="0px"
	 width="50px" height="50px" viewBox="0 0 50 50" enable-background="new 0 0 50 50" xml:space="preserve">
<rect y="0" fill="#F05A5C" width="50" height="50"/>
<g>
	<g>
		<path fill="#D30C07" d="M30.461,25.832l2.836-2.838c0.781-0.781,0.781-2.047,0-2.828l-2.834-2.836
			c-0.375-0.375-0.885-0.586-1.414-0.586c-0.531,0-1.039,0.211-1.414,0.586l-2.838,2.839l-2.839-2.839
			c-0.375-0.375-0.884-0.586-1.414-0.586c-0.531,0-1.04,0.211-1.415,0.586l-2.834,2.836c-0.78,0.781-0.78,2.047,0.001,2.828
			l2.837,2.838l-2.838,2.838c-0.78,0.781-0.78,2.047,0,2.828l2.834,2.836c0.375,0.375,0.884,0.586,1.415,0.586
			c0.53,0,1.039-0.211,1.414-0.586l2.839-2.838l2.838,2.838c0.375,0.375,0.883,0.586,1.414,0.586c0.529,0,1.039-0.211,1.414-0.586
			l2.834-2.836c0.781-0.781,0.781-2.047,0.002-2.828L30.461,25.832z M29.049,32.92l-4.252-4.252l-4.253,4.252l-2.834-2.836
			l4.251-4.252l-4.251-4.252l2.834-2.836l4.253,4.253l4.252-4.253l2.834,2.836l-4.25,4.252l4.25,4.252L29.049,32.92z M24.796,10.796
			c-8.285,0-15,6.716-15,15c0,8.284,6.715,15,15,15c8.284,0,15-6.717,15-15C39.797,17.512,33.08,10.796,24.796,10.796z
			 M24.796,38.797c-7.168,0-13-5.832-13-13c0-7.168,5.832-13,13-13c7.168,0,13,5.832,13,13
			C37.797,32.965,31.965,38.797,24.796,38.797z"/>
	</g>
</g>
</svg>
