<?xml version="1.0" encoding="utf-8"?>
<!-- Generator: Adobe Illustrator 16.0.3, SVG Export Plug-In . SVG Version: 6.00 Build 0)  -->
<!DOCTYPE svg PUBLIC "-//W3C//DTD SVG 1.1//EN" "http://www.w3.org/Graphics/SVG/1.1/DTD/svg11.dtd" [
	<!ENTITY ns_extend "http://ns.adobe.com/Extensibility/1.0/">
	<!ENTITY ns_ai "http://ns.adobe.com/AdobeIllustrator/10.0/">
	<!ENTITY ns_graphs "http://ns.adobe.com/Graphs/1.0/">
	<!ENTITY ns_vars "http://ns.adobe.com/Variables/1.0/">
	<!ENTITY ns_imrep "http://ns.adobe.com/ImageReplacement/1.0/">
	<!ENTITY ns_sfw "http://ns.adobe.com/SaveForWeb/1.0/">
	<!ENTITY ns_custom "http://ns.adobe.com/GenericCustomNamespace/1.0/">
	<!ENTITY ns_adobe_xpath "http://ns.adobe.com/XPath/1.0/">
]>
<svg version="1.1" id="Capa_1" xmlns:x="&ns_extend;" xmlns:i="&ns_ai;" xmlns:graph="&ns_graphs;"
	 xmlns="http://www.w3.org/2000/svg" xmlns:xlink="http://www.w3.org/1999/xlink" x="0px" y="0px" width="30px" height="30px"
	 viewBox="0 0 30 30" enable-background="new 0 0 30 30" xml:space="preserve">
<metadata>
	<sfw  xmlns="&ns_sfw;">
		<slices></slices>
		<sliceSourceBounds  height="29.999" width="30.001" x="-0.5" y="0.5" bottomLeftOrigin="true"></sliceSourceBounds>
	</sfw>
</metadata>
<path fill="#FD8600" d="M14.196,0.032c4.761-0.307,8.421,1.672,10.973,3.996c2.455,2.235,4.583,5.751,4.81,10.16
	c0.25,4.867-1.648,8.417-3.996,10.973c-2.381,2.59-5.813,4.528-10.16,4.81c-4.557,0.293-8.51-1.658-10.973-3.996
	c-2.689-2.554-4.463-5.406-4.81-10.16C-0.298,11.179,1.599,7.308,3.9,4.841C5.025,3.634,6.463,2.446,8.167,1.59
	C9.845,0.746,11.994,0.173,14.196,0.032z M12.435,11.682c-0.587,0-1.174,0-1.761,0c0,1.062,0,2.122,0,3.184c0.609,0,1.219,0,1.829,0
	c0,3.092,0,6.186,0,9.278c1.287,0,2.574,0,3.861,0c0-3.093,0-6.187,0-9.278c0.858,0,1.717,0,2.573,0
	c0.119-1.056,0.209-2.14,0.34-3.184c-0.948-0.046-2.077,0.09-2.913-0.067c0.165-0.942-0.259-1.839,0.067-2.439
	c0.408-0.751,1.752-0.139,2.777-0.339c0-1.061,0-2.122,0-3.183C14.148,5.005,11.965,6.857,12.435,11.682z"/>
</svg>
