<?xml version="1.0" encoding="utf-8"?>
<!-- Generator: Adobe Illustrator 15.0.2, SVG Export Plug-In . SVG Version: 6.00 Build 0)  -->
<!DOCTYPE svg PUBLIC "-//W3C//DTD SVG 1.1//EN" "http://www.w3.org/Graphics/SVG/1.1/DTD/svg11.dtd">
<svg version="1.1" id="Capa_1" xmlns="http://www.w3.org/2000/svg" xmlns:xlink="http://www.w3.org/1999/xlink" x="0px" y="0px"
	 width="50px" height="50px" viewBox="0 0 50 50" enable-background="new 0 0 50 50" xml:space="preserve">
<rect y="0" fill="#BADC52" width="50" height="50"/>
<path fill="#86A813" d="M21.541,37.877c-0.923,0-1.788-0.359-2.44-1.012l-8.293-8.293c-0.652-0.65-1.011-1.518-1.011-2.439
	c0-0.922,0.358-1.789,1.011-2.44l2.369-2.37c0.652-0.651,1.52-1.011,2.44-1.011s1.788,0.359,2.44,1.011l3.483,3.484l9.999-10
	c0.652-0.652,1.52-1.011,2.439-1.011c0.922,0,1.789,0.359,2.441,1.011l2.369,2.37c1.346,1.345,1.346,3.535,0,4.879L23.981,36.865
	C23.329,37.518,22.461,37.877,21.541,37.877z M15.617,22.187c-0.421,0-0.817,0.164-1.114,0.463l-2.369,2.369
	c-0.298,0.297-0.461,0.692-0.461,1.114c0,0.42,0.163,0.816,0.461,1.113l8.293,8.293c0.595,0.596,1.633,0.596,2.229,0L37.463,20.73
	c0.615-0.613,0.615-1.613,0-2.227l-2.369-2.37c-0.596-0.594-1.633-0.596-2.229,0L22.204,26.795c-0.367,0.367-0.96,0.367-1.326,0
	l-4.146-4.146C16.434,22.351,16.038,22.187,15.617,22.187z"/>
</svg>
