<?xml version="1.0" encoding="utf-8"?>
<!-- Generator: Adobe Illustrator 16.0.3, SVG Export Plug-In . SVG Version: 6.00 Build 0)  -->
<!DOCTYPE svg PUBLIC "-//W3C//DTD SVG 1.1//EN" "http://www.w3.org/Graphics/SVG/1.1/DTD/svg11.dtd" [
	<!ENTITY ns_extend "http://ns.adobe.com/Extensibility/1.0/">
	<!ENTITY ns_ai "http://ns.adobe.com/AdobeIllustrator/10.0/">
	<!ENTITY ns_graphs "http://ns.adobe.com/Graphs/1.0/">
	<!ENTITY ns_vars "http://ns.adobe.com/Variables/1.0/">
	<!ENTITY ns_imrep "http://ns.adobe.com/ImageReplacement/1.0/">
	<!ENTITY ns_sfw "http://ns.adobe.com/SaveForWeb/1.0/">
	<!ENTITY ns_custom "http://ns.adobe.com/GenericCustomNamespace/1.0/">
	<!ENTITY ns_adobe_xpath "http://ns.adobe.com/XPath/1.0/">
]>
<svg version="1.1" id="Capa_3" xmlns:x="&ns_extend;" xmlns:i="&ns_ai;" xmlns:graph="&ns_graphs;"
	 xmlns="http://www.w3.org/2000/svg" xmlns:xlink="http://www.w3.org/1999/xlink" x="0px" y="0px" width="110px" height="30px"
	 viewBox="0 0 110 30" enable-background="new 0 0 110 30" xml:space="preserve">
<metadata>
	<sfw  xmlns="&ns_sfw;">
		<slices></slices>
		<sliceSourceBounds  height="30" width="110.001" x="-35.5" y="5.5" bottomLeftOrigin="true"></sliceSourceBounds>
	</sfw>
</metadata>
<g id="twitter">
	<path fill="#F06452" d="M102.027,9.22c-0.637,0.252-1.197,0.579-1.979,0.686c-1.813-2.078-5.944-0.424-5.118,2.811
		c-2.945-0.218-4.81-1.521-6.279-3.222c-0.816,1.378-0.064,3.571,0.82,4.045c-0.529,0.027-0.814-0.188-1.229-0.274
		c0.086,1.695,1.053,2.507,2.319,3.017c-0.396,0.085-0.832,0.085-1.229,0c0.4,1.22,1.32,1.917,2.729,2.125
		c-0.942,0.947-2.541,1.24-4.299,1.371c5.766,3.468,13.598-0.75,13.104-7.748c0.373-0.469,1.432-1.132,1.362-1.576
		c-0.434,0.207-1.002,0.272-1.5,0.411C101.264,10.417,101.74,9.914,102.027,9.22z"/>
	<path fill="#F06452" d="M105.164,4.02C102.275,1.39,98.814,0,95.154,0c-0.316,0-0.641,0.01-0.971,0.031
		c-2.154,0.139-4.287,0.692-6.012,1.559c-1.523,0.765-2.998,1.888-4.264,3.245c-2.754,2.951-4.164,6.959-3.871,10.995
		c0.307,4.205,1.74,7.236,4.799,10.137C87.535,28.529,91.209,30,94.918,30c0.301,0,0.604-0.01,0.912-0.029
		c5.037-0.324,8.301-2.794,10.154-4.81c2.863-3.115,4.207-6.808,3.994-10.971C109.779,10.332,108.025,6.625,105.164,4.02z
		 M95.154,1.904c4.014,0,6.961,1.916,8.729,3.523c2.492,2.27,4.021,5.5,4.193,8.86c0.188,3.635-0.988,6.859-3.494,9.584
		c-1.615,1.759-4.467,3.915-8.875,4.197c-0.268,0.018-0.527,0.022-0.791,0.022c-4.58,0-7.658-2.448-8.77-3.507
		c-2.719-2.583-3.938-5.16-4.211-8.896c-0.361-4.979,2.231-8.341,3.362-9.557c1.115-1.194,2.404-2.177,3.729-2.843
		c1.5-0.754,3.375-1.236,5.279-1.359C94.596,1.913,94.877,1.904,95.154,1.904z"/>
</g>
<g id="facebook">
	<path fill="#F06452" d="M56.389,11.468c0.166-0.942-0.26-1.838,0.066-2.438c0.41-0.751,1.752-0.139,2.775-0.339
		c0-1.061,0-2.122,0-3.183c-5.062-0.649-7.243,1.204-6.772,6.028c-0.587,0-1.174,0-1.761,0c0,1.061,0,2.122,0,3.184
		c0.609,0,1.219,0,1.829,0c0,3.092,0,6.187,0,9.279c1.287,0,2.574,0,3.863,0c0-3.092,0-6.187,0-9.279c0.854,0,1.715,0,2.571,0
		c0.119-1.056,0.209-2.14,0.338-3.184C58.354,11.49,57.225,11.625,56.389,11.468z"/>
	<path fill="#F06452" d="M69.979,14.19c-0.194-3.858-1.953-7.565-4.813-10.17C62.275,1.39,58.814,0,55.154,0
		c-0.317,0-0.641,0.01-0.97,0.031c-2.154,0.139-4.289,0.693-6.013,1.558c-1.523,0.767-2.997,1.89-4.264,3.247
		c-2.753,2.952-4.164,6.959-3.87,10.995c0.306,4.204,1.741,7.235,4.798,10.137C47.536,28.529,51.209,30,54.917,30
		c0.302,0,0.604-0.01,0.912-0.029c5.037-0.324,8.303-2.794,10.155-4.81C68.848,22.046,70.191,18.354,69.979,14.19z M55.154,1.905
		c4.014,0,6.961,1.916,8.729,3.523c2.492,2.27,4.021,5.5,4.193,8.86c0.188,3.635-0.988,6.858-3.494,9.584
		c-1.615,1.759-4.467,3.915-8.875,4.198c-0.267,0.017-0.528,0.025-0.791,0.025c-4.58,0-7.658-2.453-8.77-3.511
		c-2.718-2.583-3.938-5.16-4.21-8.896c-0.362-4.98,2.231-8.342,3.363-9.558c1.115-1.195,2.404-2.178,3.728-2.844
		c1.5-0.753,3.375-1.236,5.28-1.359C54.596,1.913,54.876,1.905,55.154,1.905z"/>
</g>
<path fill="#F06452" d="M29.979,14.19c-0.195-3.858-1.953-7.565-4.813-10.17C22.276,1.39,18.815,0,15.155,0
	c-0.317,0-0.641,0.01-0.97,0.031C12.031,0.17,9.896,0.724,8.172,1.589c-1.523,0.767-2.997,1.89-4.264,3.247
	c-2.753,2.952-4.164,6.959-3.87,10.995c0.306,4.204,1.741,7.235,4.798,10.137C7.536,28.529,11.21,30,14.917,30
	c0.302,0,0.604-0.01,0.912-0.029c5.037-0.324,8.303-2.794,10.155-4.81C28.848,22.046,30.192,18.354,29.979,14.19z M15.155,1.905
	c4.014,0,6.961,1.916,8.729,3.523c2.492,2.27,4.021,5.5,4.193,8.86c0.188,3.635-0.988,6.858-3.494,9.584
	c-1.615,1.759-4.467,3.915-8.875,4.198c-0.267,0.017-0.528,0.025-0.791,0.025c-4.58,0-7.658-2.453-8.77-3.511
	c-2.718-2.583-3.938-5.16-4.21-8.896C1.575,10.709,4.168,7.347,5.3,6.133c1.115-1.195,2.404-2.178,3.728-2.844
	c1.5-0.753,3.375-1.236,5.28-1.359C14.596,1.913,14.877,1.905,15.155,1.905z"/>
<path fill="#F06452" d="M6.225,8.127h17.551c0.332,0,0.397,0.178,0.146,0.395l-8.465,7.337c-0.25,0.217-0.659,0.217-0.91,0
	L6.078,8.522C5.827,8.305,5.893,8.127,6.225,8.127z"/>
<path fill="#F06452" d="M4.997,20.027V9.354c0-0.329,0.205-0.425,0.456-0.208l5.964,5.152c0.252,0.217,0.252,0.572,0,0.787
	l-5.964,5.151C5.202,20.453,4.997,20.359,4.997,20.027z"/>
<path fill="#F06452" d="M23.775,21.254H6.225c-0.332,0-0.397-0.176-0.146-0.393l5.932-5.113c0.251-0.217,0.667-0.223,0.923-0.012
	l1.602,1.315c0.255,0.209,0.673,0.209,0.927-0.004l1.569-1.309c0.253-0.212,0.668-0.21,0.92,0.008l5.968,5.114
	C24.171,21.08,24.107,21.254,23.775,21.254z"/>
<path fill="#F06452" d="M25.003,20.027c0,0.332-0.205,0.426-0.457,0.209l-5.966-5.151c-0.251-0.215-0.251-0.57,0-0.787l5.966-5.152
	c0.252-0.217,0.457-0.121,0.457,0.208V20.027z"/>
</svg>
