<?xml version="1.0" encoding="utf-8"?>
<!-- Generator: Adobe Illustrator 16.0.3, SVG Export Plug-In . SVG Version: 6.00 Build 0)  -->
<!DOCTYPE svg PUBLIC "-//W3C//DTD SVG 1.1//EN" "http://www.w3.org/Graphics/SVG/1.1/DTD/svg11.dtd" [
	<!ENTITY ns_extend "http://ns.adobe.com/Extensibility/1.0/">
	<!ENTITY ns_ai "http://ns.adobe.com/AdobeIllustrator/10.0/">
	<!ENTITY ns_graphs "http://ns.adobe.com/Graphs/1.0/">
	<!ENTITY ns_vars "http://ns.adobe.com/Variables/1.0/">
	<!ENTITY ns_imrep "http://ns.adobe.com/ImageReplacement/1.0/">
	<!ENTITY ns_sfw "http://ns.adobe.com/SaveForWeb/1.0/">
	<!ENTITY ns_custom "http://ns.adobe.com/GenericCustomNamespace/1.0/">
	<!ENTITY ns_adobe_xpath "http://ns.adobe.com/XPath/1.0/">
]>
<svg version="1.1" id="Capa_1" xmlns:x="&ns_extend;" xmlns:i="&ns_ai;" xmlns:graph="&ns_graphs;"
	 xmlns="http://www.w3.org/2000/svg" xmlns:xlink="http://www.w3.org/1999/xlink" x="0px" y="0px" width="30px" height="30px"
	 viewBox="0 0 30 30" enable-background="new 0 0 30 30" xml:space="preserve">
<metadata>
	<sfw  xmlns="&ns_sfw;">
		<slices></slices>
		<sliceSourceBounds  height="30" width="30" x="-0.501" y="0.501" bottomLeftOrigin="true"></sliceSourceBounds>
	</sfw>
</metadata>
<path fill="#FD8600" d="M13.787,0.053c7.314-0.575,12.352,3.558,14.604,8.158c1.371,2.795,1.988,6.188,1.365,9.528
	c-1.113,5.975-5.311,10.385-10.988,11.792c-3.057,0.757-6.697,0.644-9.69-0.686C4.43,26.782,0.06,22.083,0,15.204
	c-0.039-4.587,1.805-8.103,4.027-10.42C6.261,2.454,9.375,0.4,13.787,0.053z M15.629,13.01c-2.945-0.218-4.809-1.522-6.278-3.222
	c-0.817,1.377-0.065,3.572,0.819,4.045c-0.528,0.027-0.814-0.188-1.229-0.274c0.087,1.696,1.053,2.507,2.321,3.017
	c-0.396,0.084-0.833,0.084-1.229,0c0.401,1.219,1.321,1.917,2.729,2.125c-0.943,0.947-2.541,1.24-4.299,1.371
	c5.766,3.467,13.6-0.749,13.104-7.747c0.373-0.469,1.432-1.132,1.365-1.577c-0.432,0.207-1.002,0.272-1.502,0.411
	c0.531-0.449,1.008-0.952,1.297-1.645c-0.637,0.252-1.197,0.579-1.979,0.686C18.936,8.121,14.804,9.774,15.629,13.01z"/>
</svg>
